# xmcd
#
# Track frame offsets:
#	150
#	12786
#	28047
#	46767
#	57465
#	73453
#	90591
#	109482
#	121045
#	134829
#	149084
#	160515
#	167690
#	183620
#	201606
#	210408
#	224794
#	241700
#	257815
#	273279
#	288363
#	314334
#	331638
#
# Disc length: 4667 seconds
#
# Revision: 1
# Processed by: cddbd v1.4PL0 Copyright (c) Steve Scherf et al.
# Submitted via: audiograbber 1.80
#
DISCID=66123917
DTITLE=Gleydson Rodrigues - Convidados
DYEAR=1900
DGENRE=
TTITLE0=Dá Dá Dá
TTITLE1=Não Foge da Raia
TTITLE2=Malícia
TTITLE3=Vai Jotinha
TTITLE4=Menina Forrozeira
TTITLE5=Solução
TTITLE6=Pra Rebolar
TTITLE7=Festa na Roça
TTITLE8=Cuitelinho
TTITLE9=Nega
TTITLE10=Fusca a Gás
TTITLE11=Dá Dá Dá (Ao Vivo)
TTITLE12=Não Fujo da Raia
TTITLE13=Poutt-Pourri
TTITLE14=Meidinho dela
TTITLE15=Menina Aurora
TTITLE16=Vem me ver
TTITLE17=To Querendo Mais
TTITLE18=Na base do Cacete
TTITLE19=O Baile Legal
TTITLE20=Filho Ingrato
TTITLE21=Clima de Rodeio
TTITLE22=Clima de Rodeio (Remix)
EXTD=
EXTT0=
EXTT1=
EXTT2=
EXTT3=
EXTT4=
EXTT5=
EXTT6=
EXTT7=
EXTT8=
EXTT9=
EXTT10=
EXTT11=
EXTT12=
EXTT13=
EXTT14=
EXTT15=
EXTT16=
EXTT17=
EXTT18=
EXTT19=
EXTT20=
EXTT21=
EXTT22=
PLAYORDER=
